HIERARCHY
ROOT pelvis
{
  OFFSET 0 100 0
  CHANNELS 6 Xposition Yposition Zposition Zrotation Xrotation Yrotation
  JOINT pelvis_right_femur
  {
    OFFSET -10.78128 -3.44521 -0.5502486
    CHANNELS 3 Zrotation Xrotation Yrotation
    JOINT right_femur_tibia
    {
      OFFSET -0.8047443 -44.0398 -0.1307829
      CHANNELS 3 Zrotation Xrotation Yrotation
      JOINT right_tibia_foot
      {
        OFFSET 3.006224 -47.83518 -5
        CHANNELS 3 Zrotation Xrotation Yrotation
        End Site
        {
          OFFSET 0 -5 15
        }
      }
    }
  }
  JOINT pelvis_left_femur
  {
    OFFSET 10.78128 -3.44521 -0.5502486
    CHANNELS 3 Zrotation Xrotation Yrotation
    JOINT left_femur_tibia
    {
      OFFSET 0.8047443 -44.0398 -0.1307829
      CHANNELS 3 Zrotation Xrotation Yrotation
      JOINT left_tibia_foot
      {
        OFFSET -4.370144 -48.10324 -4.275266
        CHANNELS 3 Zrotation Xrotation Yrotation
        End Site
        {
          OFFSET 0 -5 15
        }
      }
    }
  }
  JOINT pelvis_spine1
  {
    OFFSET 0 6.468898 -3.129235
    CHANNELS 3 Zrotation Xrotation Yrotation
    JOINT spine1
    {
      OFFSET 0 23.15396 4.99043
      CHANNELS 3 Zrotation Xrotation Yrotation
      JOINT spine2
      {
        OFFSET 0 20.79997 -5.064912
        CHANNELS 3 Zrotation Xrotation Yrotation
        JOINT neck
        {
          OFFSET 0 14.38658 9.616178
          CHANNELS 3 Zrotation Xrotation Yrotation
          End Site
          {
            OFFSET 0 20 0
          }
        }
      }
      JOINT right_manubrium
      {
        OFFSET -5.722621 16.35077 3.967754
        CHANNELS 3 Zrotation Xrotation Yrotation
        JOINT right_clavicle
        {
          OFFSET -13.16364 1.694482 -4.693211
          CHANNELS 3 Zrotation Xrotation Yrotation
          JOINT right_humerus
          {
            OFFSET -28.5034 -0.3100689 -2.792744
            CHANNELS 3 Zrotation Xrotation Yrotation
            JOINT right_radius
            {
              OFFSET -25.15693 0.02248979 -1.271978
              CHANNELS 3 Zrotation Xrotation Yrotation
              End Site
              {
                OFFSET -15 0 0
              }
            }
          }
        }
      }
      JOINT left_manubrium
      {
        OFFSET 5.722621 16.35077 3.967754
        CHANNELS 3 Zrotation Xrotation Yrotation
        JOINT left_clavicle
        {
          OFFSET 13.16364 1.694482 -4.693211
          CHANNELS 3 Zrotation Xrotation Yrotation
          JOINT left_humerus
          {
            OFFSET 29.39168 -1.063119 -2.237045
            CHANNELS 3 Zrotation Xrotation Yrotation
            JOINT left_radius
            {
              OFFSET 24.59957 -0.9528479 0.9047498
              CHANNELS 3 Zrotation Xrotation Yrotation
              End Site
              {
                OFFSET 15 -0 -0
              }
            }
          }
        }
      }
    }
  }
}
MOTION
Frames: 13
Frame Time: 0.0416666666667
0 103.5113 0 0.7226924 -1.513447 0.1106043 3.675323 -15.24099 8.360833 -7.495306e-09 36.40715 7.152821e-09 -6.564942 -18.19014 -3.114166 -6.762993 5.35893 -22.43225 1.4567e-09 6.128364 -8.823487e-09 6.753264 -18.02401 25.87898 -3.522273 -2.221161 4.748015 2.202682 8.836517 -7.023443 1.331182 22.72431 6.83572 3.22907 -23.94077 9.118256 5.818874 -20.45285 11.57066 84.4083 35.12617 -16.67253 4.14348e-10 -1.410866e-09 18.02511 -7.312715 7.789763 4.953619 5.09629 -18.65696 -2.050559 -95.93224 30.19557 24.36273 5.684777e-10 -5.379382e-10 -14.5275 3.445666 17.71303 9.92781
0.3391953 103.4143 1.009331 0.6769699 -1.440926 0.3117906 3.68861 -16.92742 8.606543 -6.335351e-09 38.77826 6.292299e-09 -6.280787 -17.1027 -3.535027 -6.759028 7.322006 -22.55897 9.775977e-10 5.87409 -7.340241e-09 6.696544 -18.30883 25.40531 -3.554928 -2.332772 4.509798 2.277403 8.942732 -7.328403 1.30479 22.55429 6.910895 3.184036 -23.99546 9.214097 6.021663 -20.24384 11.56726 85.15103 35.24877 -17.5686 9.319638e-10 -1.484021e-09 17.67375 -7.232433 8.145798 4.831586 4.981117 -18.76891 -2.180216 -95.65419 30.26352 24.04727 2.087973e-10 -3.421562e-10 -14.86585 3.24863 17.4364 10.28235
0.6752348 103.4056 2.191725 0.580253 -1.135778 0.5917635 3.814804 -18.80323 8.627428 -4.847748e-09 39.47064 5.216736e-09 -6.131095 -15.86094 -3.728361 -6.690834 9.159656 -22.52584 2.912575e-10 5.65951 -5.942041e-09 6.541712 -18.64839 24.76535 -3.515114 -2.429827 4.280369 2.382869 8.993268 -7.617356 1.266792 22.3259 7.018211 3.211057 -24.17919 9.2791 6.140004 -20.00646 11.54261 85.81718 35.34438 -18.48535 1.239932e-09 -1.470045e-09 17.18237 -7.252701 8.436513 4.788683 4.987516 -18.97048 -2.284636 -95.25832 30.19093 23.58108 -4.02598e-12 -2.746153e-10 -15.49681 3.255309 17.1694 10.39611
1.003185 103.4118 3.651002 0.442084 -0.5754471 0.9178943 4.037867 -20.83434 8.405523 -3.155288e-09 38.30575 4.225042e-09 -6.045676 -14.39444 -3.628279 -6.598883 10.79876 -22.33552 -5.437945e-10 5.52029 -4.791928e-09 6.250802 -19.10815 24.00284 -3.402624 -2.501884 4.087933 2.503231 8.971206 -7.856113 1.228146 22.05231 7.183998 3.339017 -24.51673 9.33674 6.167709 -19.73364 11.49514 86.40765 35.39171 -19.39528 1.260435e-09 -1.361648e-09 16.57658 -7.446792 8.636268 4.857868 5.15297 -19.24268 -2.348697 -94.8343 29.968 22.98266 2.451014e-11 -4.330495e-10 -16.46864 3.456808 16.90053 10.28824
1.312018 103.3416 5.41909 0.3049722 0.1309156 1.24847 4.31634 -22.91412 7.973576 -1.846967e-09 35.33717 3.833845e-09 -5.997254 -12.94331 -3.274408 -6.524232 12.14021 -22.00978 -1.232093e-09 5.55473 -4.222318e-09 5.909365 -19.70647 23.25863 -3.250487 -2.533806 3.957709 2.623056 8.887287 -8.026704 1.190178 21.77283 7.390471 3.548055 -24.92087 9.377102 6.098927 -19.41726 11.43095 86.81344 35.36711 -20.24701 9.485989e-10 -1.247892e-09 15.86419 -7.765414 8.701401 4.969851 5.479397 -19.58826 -2.38128 -94.28009 29.64298 22.1552 3.380262e-10 -8.60989e-10 -17.81469 3.847986 16.6713 9.926761
1.600123 103.1432 7.550381 0.1370273 0.9756836 1.553101 4.636075 -24.86302 7.402339 -6.060927e-10 31.11784 3.727048e-09 -6.011308 -11.44585 -2.716062 -6.442434 13.14557 -21.56176 -1.921087e-09 5.817756 -3.948023e-09 5.43943 -20.29485 22.44667 -3.044391 -2.535571 3.875139 2.739915 8.742145 -8.126312 1.160046 21.46641 7.616882 3.817387 -25.39345 9.401702 5.967422 -19.07406 11.34559 87.01728 35.31334 -20.96221 4.328483e-10 -1.050136e-09 15.11111 -8.177133 8.679276 5.150009 5.891931 -19.92678 -2.365549 -93.69644 29.23202 21.28443 8.076885e-10 -1.452469e-09 -19.27709 4.33311 16.43294 9.446399
1.867614 102.8014 10.11782 -0.09674614 1.88496 1.821193 5.007131 -26.62028 6.805701 8.514605e-10 26.35789 3.444496e-09 -6.101763 -9.951027 -2.123068 -6.289809 13.94817 -20.99645 -2.779361e-09 6.405207 -3.588533e-09 4.755893 -20.7063 21.44922 -2.77187 -2.513488 3.793679 2.864388 8.54882 -8.190345 1.150078 21.13282 7.812899 4.085539 -25.88133 9.408455 5.802116 -18.70266 11.23438 87.14394 35.25058 -21.56286 -1.077561e-10 -6.996053e-10 14.35057 -8.609683 8.674683 5.385864 6.294711 -20.20724 -2.307182 -93.14696 28.77068 20.46692 1.208972e-09 -1.984875e-09 -20.62235 4.801309 16.13319 8.991751
2.112282 102.3433 13.16343 -0.3858919 2.677985 2.058735 5.402508 -28.03301 6.328244 2.440492e-09 22.11022 2.701259e-09 -6.258823 -8.661417 -1.719956 -6.042024 14.63916 -20.36672 -3.776367e-09 7.483146 -2.931744e-09 3.86718 -20.78614 20.28852 -2.463754 -2.457391 3.673631 2.993774 8.338064 -8.249447 1.170696 20.84126 7.923404 4.276605 -26.27508 9.396738 5.649033 -18.29987 11.10777 87.3722 35.21912 -22.07726 -4.862989e-10 -1.783671e-10 13.61226 -8.969027 8.777482 5.633052 6.579537 -20.38874 -2.223844 -92.71181 28.35662 19.747 1.345427e-09 -2.206973e-09 -21.61351 5.13591 15.76536 8.706846
2.342402 101.8892 16.74044 -0.763964 3.319332 2.289184 5.84758 -28.86867 6.089028 4.404485e-09 19.33566 1.101135e-09 -6.561317 -7.440755 -1.573361 -5.679569 15.19362 -19.69974 -4.974849e-09 9.447096 -1.542044e-09 2.751777 -20.25473 18.86383 -2.104412 -2.394721 3.498692 3.132476 8.157306 -8.325917 1.211753 20.55881 7.923286 4.366737 -26.58981 9.344937 5.583849 -17.88862 10.98301 87.6974 35.30818 -22.48021 -4.805895e-10 5.396903e-10 12.92167 -9.171563 9.05447 5.885034 6.612024 -20.40657 -2.124098 -92.45098 28.02244 19.36357 1.093175e-09 -1.968557e-09 -21.92476 5.245024 15.29191 8.738501
2.56605 101.6019 20.82459 -1.185903 3.699195 2.53328 6.284272 -28.94923 6.099909 6.461861e-09 18.61245 -1.366682e-09 -7.079329 -6.346552 -1.709834 -5.24706 15.4913 -18.99652 -6.192503e-09 12.49083 6.239988e-10 1.614729 -18.99518 17.28427 -1.741256 -2.33007 3.277929 3.270942 8.073644 -8.437999 1.239665 20.29931 7.801419 4.33806 -26.76135 9.206279 5.649169 -17.4843 10.88981 88.00952 35.59385 -22.75119 1.975601e-11 1.339827e-09 12.22887 -9.167378 9.501736 6.094111 6.327461 -20.29334 -2.045405 -92.17656 27.78732 19.27188 4.563539e-10 -1.249706e-09 -21.51525 5.159143 14.73836 9.042107
2.793742 101.6026 25.41905 -1.620145 3.786662 2.781925 6.739566 -28.14164 6.303116 8.51564e-09 19.18599 -4.386611e-09 -7.685519 -5.498939 -2.068253 -4.747805 15.27766 -18.17183 -7.34899e-09 16.80009 3.212978e-09 0.450427 -17.07418 15.68604 -1.352805 -2.243319 3.090163 3.388985 8.098673 -8.540139 1.274242 20.10713 7.565859 4.209309 -26.78203 8.994946 5.775277 -17.13494 10.84734 88.38828 35.92776 -22.8766 8.243696e-10 2.153768e-09 11.63201 -9.109702 10.11272 6.294541 5.805629 -20.09092 -1.994538 -92.05096 27.57047 19.48173 -4.485353e-10 -2.328514e-10 -20.55987 4.919905 14.10744 9.555015
3.007424 101.988 30.3916 -1.98346 3.531725 2.972677 7.241052 -26.42542 6.635298 9.705761e-09 20.07182 -7.087575e-09 -8.426366 -5.262422 -2.5462 -4.234626 14.26565 -17.18641 -7.791623e-09 22.88653 5.354848e-09 -0.5200146 -14.59753 14.31238 -0.9625201 -2.119644 3.02896 3.488089 8.276482 -8.618219 1.285962 20.01269 7.225547 4.012502 -26.6176 8.66081 5.931929 -16.84283 10.89764 88.60261 36.28901 -22.89182 1.697238e-09 2.736216e-09 11.04563 -8.927421 10.75165 6.33889 5.129422 -19.93726 -1.998505 -91.82188 27.36419 19.76173 -1.360201e-09 7.844005e-10 -19.44186 4.682418 13.52501 10.02848
3.185944 102.7744 35.60691 -2.15889 2.897151 3.02039 7.662032 -23.60728 6.926183 9.464371e-09 20.5297 -8.615664e-09 -9.086644 -5.706312 -3.013082 -3.793291 12.03476 -15.97178 -7.012209e-09 30.55934 6.130548e-09 -1.278417 -11.87707 13.44297 -0.6301412 -1.894539 3.203325 3.507024 8.595272 -8.575989 1.292644 20.13836 6.853463 3.818097 -26.24762 8.256489 6.06037 -16.63776 11.06404 88.72638 36.59063 -22.71051 2.357601e-09 3.028856e-09 10.56374 -8.939612 11.3498 6.353218 4.454305 -19.87157 -2.049509 -91.6901 27.11737 19.9892 -1.956924e-09 1.512569e-09 -18.50277 4.504211 12.99449 10.39249
